<svg xmlns="http://www.w3.org/2000/svg" viewBox="0 0 840.83 840.83"><defs><style>.cls-1,.cls-2,.cls-4,.cls-6{fill:none;stroke-miterlimit:10;}.cls-1,.cls-2,.cls-6{stroke:#fff;}.cls-1{stroke-width:10px;}.cls-2{stroke-width:50px;}.cls-3{fill:#fff;}.cls-4{stroke:#3c60ac;stroke-width:35px;}.cls-5{fill:#3c60ac;}.cls-6{stroke-width:20px;}</style></defs><title>Asset 2</title><g id="Layer_2" data-name="Layer 2"><g id="Layer_6" data-name="Layer 6"><path class="cls-1" d="M520.8,104.06l-7.68,5.74-12.84-2.87-2.37,9.3v12.84h17.92l1.35,4.39,8.45,8.46v14.87L520.8,169.3l4.83,8.11-2,5.07L496.22,196l-11.15-1.69-9.47,16.56-6.76,3.38-11.49,20.62-1.69,21-1.69,7.1-10.45,4.73-5.1,12.51v22.65l-23.66,8.79v23l-5.07,9.13v8.11l-8.45,8.79H391.1s-1.69,8.11-2.71,8.79-10.82,1.69-10.82,1.69l-2.7,6.76,3,12.84-3,7.1v7.1l-9.8,12.51-1.69,10.82-15.55,12.84v6.76l3.72,7.1-10.48,1.69-5.41,11.49v12.51L330.59,487l-21,3.38-6.42-13.18-5.07,2.7-7.1-9.46v-7.1l-16.56-10.14-2,12.51-21.3.67L248.79,457l-16.23,16.9-9.8-.68-1.35,17.24H211.6v4.73h-7.77v5.41h-8.11l-4.06,9.13-26,23-3,38.53-14.87,26,9.8,14.2,11.83,1.69,1.35,17.57h4.4l.33,11.16,23,8.79,5.41,2L219,641.52,215,651l3.38,4.39-9.8,3.72,3.38,9.8,3,5.41,11.16,10.48,8.45,16.56-3,15.21-5.75,18.93-2,17.24,22.31,6.42h73.69l2-7.77,117,2,6.42,5.74,77.41-2.7,18.59,10.14,15.89,4.06,7.77-3.38,5.07,7.1,10.14-2.71,14.88,2.71,15.21,9.46,5.07,7.1,6.42-3.38-1.69-12.17-4.73-9.46,2.7-8.79,7.1-.34-9.13-15.21V711.83L602.7,701l-51.38-55.43,7.78-2-2.71-15.21-10.14-10.48-14.2-10.14-3-32.79-8.21-8.79,5.51-12.84-.68-25.45-9.46-3.29-2.71-6.42L533.74,505l13.52-30.42,7.44-1.36,9.13-25.69,12.5-13.18,9.81-12.51.67-9.46-9.12-6.76-17.24-47-13.52-5.07L523.6,340.68l-13.86-16.57.34-6.08-22.31-21,.34-6.42,9.13-9.47.33-6.08,29.07-1,8.46,4.74,16.9-3.05,21.63.68,12.51,1,4.73-4.39-18.59-12.84-8.79-12.51-7.1-6.76.34-11.83-4.06-2.37.34-13.18-3-2.37.34-21.29,7.1-12.85L552.67,173,552,142.93l-10.14.68v-20l-4.4-1.35.68-9.8Z"/><circle class="cls-2" cx="262.69" cy="459.04" r="131.27"/><circle class="cls-3" cx="263.03" cy="217.87" r="78.02"/><polygon class="cls-3" points="178.88 340.13 178.88 756.52 208.65 756.52 208.65 580.72 316.73 580.72 316.73 756.52 347.19 756.52 347.19 340.13 178.88 340.13"/><path class="cls-4" d="M394.45,458.71a131.42,131.42,0,0,1-262.84,0"/><circle class="cls-5" cx="262.69" cy="522.25" r="47.03"/><rect class="cls-6" x="10" y="10" width="820.83" height="820.83"/></g></g></svg>