<svg height="512" viewBox="0 0 512 512" width="512" xmlns="http://www.w3.org/2000/svg"><g id="filled_outline" data-name="filled outline"><path d="m134.605 80h20a0 0 0 0 1 0 0v40a0 0 0 0 1 0 0h-20a20 20 0 0 1 -20-20 20 20 0 0 1 20-20z" fill="#efb696"/><path d="m286.605 80h20a0 0 0 0 1 0 0v40a0 0 0 0 1 0 0h-20a20 20 0 0 1 -20-20 20 20 0 0 1 20-20z" fill="#efb696" transform="matrix(-1 0 0 -1 573.21 200)"/><path d="m137 88h12a0 0 0 0 1 0 0v24a0 0 0 0 1 0 0h-12a12 12 0 0 1 -12-12 12 12 0 0 1 12-12z" fill="#e7a477"/><path d="m284 88h12a0 0 0 0 1 0 0v24a0 0 0 0 1 0 0h-12a12 12 0 0 1 -12-12 12 12 0 0 1 12-12z" fill="#e7a477" transform="matrix(-1 0 0 -1 568 200)"/><path d="m342.42 226.78-48.82-26.64a132.245 132.245 0 0 0 -63.31-16.14h-6.29v-1.263a71.974 71.974 0 1 0 -24 .479v.784h-14.29a132.245 132.245 0 0 0 -63.31 16.14l-48.69 26.56a18.637 18.637 0 0 0 16.63 33.33l61.66-28.03v56l1 2h110l1-2v-56s36.06 16.39 62.01 28.19a18.393 18.393 0 0 0 25.99-16.79v-.49a18.356 18.356 0 0 0 -9.58-16.13z" fill="#efb696"/><path d="m244.96 48.71-10.62 8.85a21.475 21.475 0 0 0 -7.73 16.5v2.34a1.5 1.5 0 0 1 -2.55 1.06l-13.45-13.46-6.67 13.33a1.493 1.493 0 0 1 -2.67 0l-4.65-9.31a21.579 21.579 0 0 0 -5.47-6.9l-14.89-12.41a72.089 72.089 0 0 1 68.7 0z" fill="#8c6239"/><circle cx="210.605" cy="144" fill="#bd9fca" r="16"/><path d="m149.809 455.392-31.053-52.844a49.011 49.011 0 0 1 1.562-52.146l36.517-54.402 40.993 30.718-23.6 40.052a38.975 38.975 0 0 0 -1.14 37.493l15.293 29.983a22 22 0 0 1 -6.577 27.733 22 22 0 0 1 -31.995-6.587z" fill="#efb696"/><path d="m266.191 455.392 31.053-52.844a49.011 49.011 0 0 0 -1.562-52.146l-36.517-54.402-40.993 30.718 23.6 40.052a38.975 38.975 0 0 1 1.14 37.493l-15.293 29.983a22 22 0 0 0 6.577 27.733 22 22 0 0 0 31.995-6.587z" fill="#efb696"/><path d="m264 288-1 2-24.59 49.19a23.193 23.193 0 0 1 -20.73 12.81h-19.36a23.193 23.193 0 0 1 -20.73-12.81l-24.59-49.19-1-2z" fill="#e6e6e6"/><path d="m176 132h-8a4 4 0 0 1 0-8h8a4 4 0 0 1 0 8z" fill="#e7a477"/><path d="m255 132h-8a4 4 0 0 1 0-8h8a4 4 0 0 1 0 8z" fill="#e7a477"/><path d="m385.212 166.582-22.583 1.418-1.418-22.583 37.04-42.001 24.001 21.166z" fill="#b7b6b6"/><g fill="#333"><path d="m450.646 80.29-12-10.583a4 4 0 1 0 -5.292 6l3 2.646-26.458 30-15-13.228a4 4 0 0 0 -5.291 6l3 2.646-34.395 39a4 4 0 0 0 -.992 2.9l1.314 20.93-20.07 22.757a4 4 0 0 0 6 5.292l20.07-22.758 20.929-1.313a4 4 0 0 0 2.75-1.347l34.394-39 3 2.646a4 4 0 0 0 5.291-6l-15-13.228 26.458-30 3 2.645a4 4 0 1 0 5.292-6zm-67.338 82.4-16.937 1.063-1.064-16.938 33.3-37.757 18 15.874z"/><path d="m194.605 112a7.954 7.954 0 0 0 -1.2-4.2 3.988 3.988 0 0 0 4.031-6.626 19.672 19.672 0 0 0 -22.736-3.692l-5.881 2.94a4 4 0 1 0 3.578 7.156l5.881-2.941a11.678 11.678 0 0 1 9.017-.6c-.227-.02-.455-.035-.687-.035a8 8 0 1 0 8 8z"/><path d="m227.807 107.8a7.994 7.994 0 1 0 6.8-3.8c-.232 0-.46.015-.687.035a11.678 11.678 0 0 1 9.017.6l5.881 2.941a4 4 0 0 0 3.578-7.156l-5.881-2.94a19.674 19.674 0 0 0 -22.736 3.689 3.988 3.988 0 0 0 4.03 6.626z"/><path d="m230.605 144a20 20 0 1 0 -20 20 20.023 20.023 0 0 0 20-20zm-32 0a12 12 0 1 1 12 12 12.013 12.013 0 0 1 -12-12z"/><path d="m344.336 223.263-48.823-26.631a136.656 136.656 0 0 0 -52.277-16.007 76.221 76.221 0 0 0 42.413-56.625h.961a24 24 0 0 0 0-48h-9.09a75.97 75.97 0 0 0 -133.83 0h-9.08a24 24 0 0 0 0 48h.951a76.215 76.215 0 0 0 41.68 56.267 136.677 136.677 0 0 0 -56.754 16.365l-48.687 26.559a22.634 22.634 0 0 0 20.2 40.476l56-25.455v49.788c0 .644 3.74 8.425 3.74 8.425l-34.74 51.745a53.278 53.278 0 0 0 -1.688 56.406l31.05 52.841a26.129 26.129 0 0 0 22.448 12.833 26 26 0 0 0 23.133-37.817l-15.289-29.99a34.826 34.826 0 0 1 1.022-33.642l9.067-15.381a27.21 27.21 0 0 0 11.582 2.58h19.35a27.21 27.21 0 0 0 11.582-2.58l9.066 15.38a34.829 34.829 0 0 1 1.024 33.643l-15.29 29.989a26 26 0 0 0 45.582 24.985l31.049-52.839a53.279 53.279 0 0 0 -1.688-56.408l-34.74-51.745s3.74-7.781 3.74-8.425v-49.788l56.359 25.617a22.389 22.389 0 0 0 31.641-20.429v-.493a22.367 22.367 0 0 0 -11.664-19.644zm-57.726-139.263a16 16 0 0 1 0 32h-.11q.1-1.988.106-4a75.569 75.569 0 0 0 -5.368-28zm-48.983-34.386-5.847 4.872a25.388 25.388 0 0 0 -8.934 16.1l-9.407-9.414a4 4 0 0 0 -6.406 1.038l-4.426 8.845-2.407-4.829a25.435 25.435 0 0 0 -6.484-8.179l-10.122-8.436a67.842 67.842 0 0 1 54.038 0zm-103.017 66.386a16 16 0 0 1 0-32h5.363a75.569 75.569 0 0 0 -5.368 28q0 2.013.106 4zm7.995-4a68.023 68.023 0 0 1 33.25-58.42l12.734 10.613a17.461 17.461 0 0 1 4.453 5.614l4.65 9.311a5.492 5.492 0 0 0 9.825 0l4.187-8.367 9.543 9.55a5.5 5.5 0 0 0 9.363-3.9v-2.341a17.423 17.423 0 0 1 6.29-13.427l8.46-7.05a67.989 67.989 0 1 1 -102.76 58.417zm28.178 252.74a42.8 42.8 0 0 0 -1.257 41.337l15.291 29.991a18 18 0 0 1 -31.558 17.3l-31.051-52.842a45.236 45.236 0 0 1 1.433-47.893l32.212-47.978 18.163 36.326a27.28 27.28 0 0 0 6.061 8zm27.542-16.74a19.074 19.074 0 0 1 -17.154-10.6l-22.7-45.4h99.056l-22.7 45.4a19.074 19.074 0 0 1 -17.152 10.6zm94.034 4.629a45.238 45.238 0 0 1 1.433 47.894l-31.051 52.841a18 18 0 0 1 -31.557-17.3l15.29-29.991a42.794 42.794 0 0 0 -1.258-41.337l-9.293-15.766a27.28 27.28 0 0 0 6.061-8l18.163-36.326zm55.641-109.229a14.388 14.388 0 0 1 -20.331 13.145l-62.014-28.187a4 4 0 0 0 -5.655 3.642v52h-104v-52a4 4 0 0 0 -5.655-3.642l-61.656 28.026a14.634 14.634 0 0 1 -13.063-26.169l48.692-26.559a128.587 128.587 0 0 1 61.396-15.656h44.572a128.587 128.587 0 0 1 61.4 15.656l48.823 26.631a14.368 14.368 0 0 1 7.5 12.62z"/></g></g></svg>